<svg xmlns="http://www.w3.org/2000/svg" version="1.1" xmlns:xlink="http://www.w3.org/1999/xlink" xmlns:svgjs="http://svgjs.dev/svgjs" width="2000" height="676" viewBox="0 0 2000 676"><g transform="matrix(1,0,0,1,-1.2121212121212466,0.7649214116723329)"><svg viewBox="0 0 396 134" data-background-color="#ffffff" preserveAspectRatio="xMidYMid meet" height="676" width="2000" xmlns="http://www.w3.org/2000/svg" xmlns:xlink="http://www.w3.org/1999/xlink"><g id="tight-bounds" transform="matrix(1,0,0,1,0.2400000000000091,-0.15162643367469286)"><svg viewBox="0 0 395.52 134.30304475659722" height="134.30304475659722" width="395.52"><g><svg viewBox="0 0 665.1937505060907 225.87364999501483" height="134.30304475659722" width="395.52"><g transform="matrix(1,0,0,1,269.67375050609076,66.55335049027678)"><svg viewBox="0 0 395.52 92.76694901446126" height="92.76694901446126" width="395.52"><g id="textblocktransform"><svg viewBox="0 0 395.52 92.76694901446126" height="92.76694901446126" width="395.52" id="textblock"><g><svg viewBox="0 0 395.52 92.76694901446126" height="92.76694901446126" width="395.52"><g transform="matrix(1,0,0,1,0,0)"><svg width="395.52" viewBox="1.73 -34.86 151.5390281415574 35.23" height="92.76694901446126" data-palette-color="#fe633d"><g transform="matrix(1,0,0,1,0,0)"><g><svg width="4.521205088551492" viewBox="3.41 -36.08 17.419999999999998 19.209999999999997" height="4.986691035486966" data-palette-color="#fe633d" id="scriptelement" x="146.13532559728162" y="-32.480245517743484"><path d="M3.41-25.5L3.41-25.5 3.41-27.38Q3.41-29.92 4.47-31.88 5.54-33.84 7.5-34.96 9.46-36.08 12.11-36.08L12.11-36.08Q16.16-36.08 18.49-33.63 20.83-31.18 20.83-27.38L20.83-27.38 20.83-25.5Q20.83-22.98 19.78-21.03 18.73-19.09 16.8-17.98 14.86-16.87 12.18-16.87L12.18-16.87Q8.11-16.87 5.76-19.29 3.41-21.72 3.41-25.5ZM7.79-27.38L7.79-27.38 7.79-25.5Q7.79-23.31 8.9-21.88 10-20.45 12.18-20.45L12.18-20.45Q14.33-20.45 15.39-21.88 16.44-23.31 16.44-25.5L16.44-25.5 16.44-27.38Q16.44-29.51 15.38-30.98 14.31-32.46 12.11-32.46L12.11-32.46Q9.98-32.46 8.89-30.98 7.79-29.51 7.79-27.38Z" opacity="1" transform="matrix(1,0,0,1,0,0)" fill="#fe633d" class="undefined-123" data-fill-palette-color="primary" id="tk-123"></path></svg></g></g><path d="M143.523-29.987C143.523-32.678 145.705-34.86 148.396-34.86 151.087-34.86 153.269-32.678 153.269-29.987 153.269-27.296 151.087-25.114 148.396-25.114 145.705-25.114 143.523-27.296 143.523-29.987ZM148.396-25.667C150.782-25.667 152.716-27.601 152.716-29.987 152.716-32.373 150.782-34.307 148.396-34.307 146.01-34.307 144.076-32.373 144.076-29.987 144.076-27.601 146.01-25.667 148.396-25.667Z" fill="#fe633d" id="scriptcircle" data-fill-palette-color="primary"></path><g class="wordmark-text-0" data-fill-palette-color="primary" id="text-0"><path d="M7.45-11.55L7.45 0 1.73 0 1.73-34.86 11.18-34.86Q16.48-34.86 18.85-33.01 21.22-31.15 21.44-26.88L21.44-26.88Q21.61-24.85 21.61-23.16 21.61-21.46 21.44-19.51L21.44-19.51Q21.22-15.26 18.84-13.4 16.46-11.55 11.11-11.55L11.11-11.55 7.45-11.55ZM11.18-29.69L7.45-29.69 7.45-16.72 11.11-16.72Q13.48-16.72 14.54-17.36 15.6-17.99 15.7-19.19L15.7-19.19Q15.87-21 15.87-23.21 15.87-25.42 15.7-27.2L15.7-27.2Q15.6-28.42 14.55-29.05 13.5-29.69 11.18-29.69L11.18-29.69ZM32.83 0.37L32.83 0.37Q28.29 0.37 26.27-1.26 24.24-2.88 24.05-6.64L24.05-6.64Q24-7.32 23.96-8.73 23.92-10.13 23.92-11.77 23.92-13.4 23.95-14.84 23.97-16.28 24.05-17.04L24.05-17.04Q24.27-20.9 26.32-22.52 28.37-24.15 32.79-24.15L32.79-24.15Q37.13-24.15 39.1-22.56 41.06-20.97 41.23-17.29L41.23-17.29Q41.28-16.87 41.32-15.77 41.35-14.67 41.34-13.35 41.33-12.04 41.21-10.91L41.21-10.91 29.32-10.91Q29.32-9.62 29.34-8.39 29.37-7.15 29.42-6.03L29.42-6.03Q29.44-4.93 30.23-4.47 31.03-4 32.81-4L32.81-4Q34.49-4 35.2-4.47 35.91-4.93 36.01-6.03L36.01-6.03Q36.06-7.01 36.01-9.23L36.01-9.23 41.21-9.23Q41.26-9.03 41.27-8.17 41.28-7.3 41.23-6.64L41.23-6.64Q41.06-2.88 39.15-1.26 37.23 0.37 32.83 0.37ZM29.32-14.97L29.32-14.97 36.03-14.97Q36.06-16.04 36.06-16.92 36.06-17.8 36.01-17.97L36.01-17.97Q35.91-18.92 35.18-19.35 34.45-19.78 32.79-19.78L32.79-19.78Q31-19.78 30.23-19.35 29.47-18.92 29.42-17.97L29.42-17.97Q29.39-17.26 29.37-16.5 29.34-15.75 29.32-14.97ZM50.14-31.69L50.14 0 44.7 0 44.7-31.69 50.14-31.69ZM59.9-31.69L59.9-27.22 54.51-27.22 54.51-31.69 59.9-31.69ZM59.9-23.75L59.9 0 54.51 0 54.51-23.75 59.9-23.75ZM79.85-5.18L79.85 0 62.81 0 62.81-4.91 74.72-29.69 63.52-29.69 63.52-34.86 80.85-34.86 80.85-29.86 68.59-5.18 79.85-5.18ZM91.76 0.37L91.76 0.37Q87.15 0.37 85.24-1.45 83.34-3.27 83.14-7.54L83.14-7.54Q83.07-8.45 83.03-10.14 83-11.84 83.02-13.56 83.04-15.28 83.14-16.28L83.14-16.28Q83.36-20.51 85.24-22.33 87.12-24.15 91.76-24.15L91.76-24.15Q96.42-24.15 98.28-22.31 100.13-20.48 100.33-16.28L100.33-16.28Q100.43-15.36 100.45-13.67 100.48-11.99 100.45-10.27 100.43-8.54 100.33-7.54L100.33-7.54Q100.11-3.32 98.27-1.48 96.42 0.37 91.76 0.37ZM91.76-4L91.76-4Q93.47-4 94.2-4.54 94.93-5.08 94.98-6.05L94.98-6.05Q95.1-8.81 95.1-11.91 95.1-15.01 94.98-17.77L94.98-17.77Q94.93-18.75 94.21-19.26 93.49-19.78 91.76-19.78L91.76-19.78Q90.05-19.78 89.29-19.26 88.54-18.75 88.49-17.77L88.49-17.77Q88.34-15.01 88.33-11.9 88.32-8.79 88.49-6.05L88.49-6.05Q88.54-5.08 89.31-4.54 90.08-4 91.76-4ZM109.02-18.16L109.02 0 103.65 0 103.65-23.75 109.02-23.75 109.02-21.22 110.02-21.22Q110.87-22.66 111.95-23.4 113.02-24.15 115-24.15L115-24.15Q117.71-24.15 119.17-22.62 120.64-21.09 120.64-17.48L120.64-17.48 120.64 0 115.29 0 115.29-17.99Q115.29-19.87 112.83-19.87L112.83-19.87Q111.68-19.87 110.58-19.41 109.48-18.95 109.02-18.16L109.02-18.16ZM132.65 0.37L132.65 0.37Q128.11 0.37 126.08-1.26 124.05-2.88 123.86-6.64L123.86-6.64Q123.81-7.32 123.77-8.73 123.74-10.13 123.74-11.77 123.74-13.4 123.76-14.84 123.79-16.28 123.86-17.04L123.86-17.04Q124.08-20.9 126.13-22.52 128.18-24.15 132.6-24.15L132.6-24.15Q136.95-24.15 138.91-22.56 140.88-20.97 141.05-17.29L141.05-17.29Q141.1-16.87 141.13-15.77 141.17-14.67 141.16-13.35 141.14-12.04 141.02-10.91L141.02-10.91 129.13-10.91Q129.13-9.62 129.16-8.39 129.18-7.15 129.23-6.03L129.23-6.03Q129.25-4.93 130.05-4.47 130.84-4 132.62-4L132.62-4Q134.31-4 135.02-4.47 135.72-4.93 135.82-6.03L135.82-6.03Q135.87-7.01 135.82-9.23L135.82-9.23 141.02-9.23Q141.07-9.03 141.08-8.17 141.1-7.3 141.05-6.64L141.05-6.64Q140.88-2.88 138.96-1.26 137.04 0.37 132.65 0.37ZM129.13-14.97L129.13-14.97 135.85-14.97Q135.87-16.04 135.87-16.92 135.87-17.8 135.82-17.97L135.82-17.97Q135.72-18.92 134.99-19.35 134.26-19.78 132.6-19.78L132.6-19.78Q130.82-19.78 130.05-19.35 129.28-18.92 129.23-17.97L129.23-17.97Q129.21-17.26 129.18-16.5 129.16-15.75 129.13-14.97Z" fill="#fe633d" data-fill-palette-color="primary"></path></g></svg></g></svg></g></svg></g></svg></g><g><svg viewBox="0 0 225.87364999501483 225.87364999501483" height="225.87364999501483" width="225.87364999501483"><g><svg></svg></g><g id="icon-0"><svg viewBox="0 0 225.87364999501483 225.87364999501483" height="225.87364999501483" width="225.87364999501483"><g><path d="M0 112.937c0-62.373 50.564-112.937 112.937-112.937 62.373 0 112.937 50.564 112.937 112.937 0 62.373-50.564 112.937-112.937 112.937-62.373 0-112.937-50.564-112.937-112.937zM112.937 217.508c57.753 0 104.571-46.818 104.571-104.571 0-57.753-46.818-104.571-104.571-104.571-57.753 0-104.571 46.818-104.571 104.571 0 57.753 46.818 104.571 104.571 104.571z" data-fill-palette-color="accent" fill="#fe633d" stroke="transparent"></path></g><g transform="matrix(1,0,0,1,47.580492239106945,66.5003336185044)"><svg viewBox="0 0 130.71266551680094 92.87298275800603" height="92.87298275800603" width="130.71266551680094"><g><svg xmlns="http://www.w3.org/2000/svg" xmlns:xlink="http://www.w3.org/1999/xlink" version="1.1" x="0" y="0" viewBox="10 21.58 80 56.84100000000001" enable-background="new 0 0 100 100" xml:space="preserve" height="92.87298275800603" width="130.71266551680094" class="icon-dxe-0" data-fill-palette-color="accent" id="dxe-0"><g fill="#fe633d" data-fill-palette-color="accent"><g fill="#fe633d" data-fill-palette-color="accent"><path d="M68.984 60.346C64.954 60.346 61.425 62.979 59.485 66.916 58.256 65.969 56.801 65.418 55.243 65.418 53.416 65.418 51.732 66.172 50.388 67.438 48.649 64.7 45.934 62.934 42.881 62.934A7.95 7.95 0 0 0 39.536 63.678 3.36 3.36 0 0 0 36.665 62.061 3.366 3.366 0 0 0 33.298 65.426C33.298 66.631 33.936 67.686 34.889 68.281A12.7 12.7 0 0 0 34.06 70.246 5.4 5.4 0 0 0 33.313 70.84C32.114 68.949 30.238 67.731 28.131 67.731 24.511 67.731 21.573 71.321 21.573 75.749 21.573 77.228 22.552 78.421 23.76 78.421H32.501C32.589 78.421 32.675 78.413 32.76 78.401 32.836 78.413 32.914 78.421 32.994 78.421H49.213C49.341 78.421 49.464 78.409 49.587 78.394A2.4 2.4 0 0 0 49.928 78.421H60.56C60.723 78.421 60.885 78.401 61.041 78.366 61.224 78.399 61.406 78.421 61.595 78.421H76.374C78.416 78.421 80.071 76.4 80.071 73.903 80.071 66.418 75.104 60.346 68.984 60.346" fill="#fe633d" data-fill-palette-color="accent"></path><circle cx="68.984" cy="52.255" r="6.8" fill="#fe633d" data-fill-palette-color="accent"></circle><circle cx="42.881" cy="56.001" r="5.8" fill="#fe633d" data-fill-palette-color="accent"></circle><circle cx="55.243" cy="59.597" r="4.9" fill="#fe633d" data-fill-palette-color="accent"></circle><circle cx="28.131" cy="62.943" r="4.0" fill="#fe633d" data-fill-palette-color="accent"></circle></g><path d="M10 21.58V66.58H22.254A6.94 6.94 0 0 1 21.123 62.803C21.123 58.938 24.267 55.793 28.131 55.793A7.01 7.01 0 0 1 34.251 59.397C34.412 59.331 34.577 59.274 34.744 59.221A8.8 8.8 0 0 1 34.075 55.86C34.075 51.005 38.025 47.053 42.881 47.053 46.646 47.053 49.858 49.432 51.115 52.762A7.81 7.81 0 0 1 59.235 52.678C59.224 52.49 59.207 52.305 59.207 52.114 59.207 46.723 63.593 42.337 68.984 42.337S78.761 46.724 78.761 52.114A9.75 9.75 0 0 1 75.695 59.208C78.285 60.864 80.379 63.452 81.667 66.581H90V21.581H10z" fill="#fe633d" data-fill-palette-color="accent"></path></g></svg></g></svg></g></svg></g></svg></g></svg></g><defs></defs></svg><rect width="395.52" height="134.30304475659722" fill="none" stroke="none" visibility="hidden"></rect></g></svg></g></svg>